<svg width="135" height="123" viewBox="0 0 135 123" fill="none" xmlns="http://www.w3.org/2000/svg">
<path fill-rule="evenodd" clip-rule="evenodd" d="M83.38 45.1425L96.42 52.6625L86.78 58.2325L77.43 52.8425C76.66 52.4025 76.11 51.8425 75.67 51.0725L67.49 36.9125L59.31 51.0725C58.87 51.8425 58.31 52.4025 57.54 52.8425C41.57 62.0625 25.59 71.2825 9.63 80.5025L62.56 111.053C65.7 112.863 69.29 112.863 72.43 111.053L125.34 80.5025L106.06 69.3725L115.71 63.8025L130.16 72.1425C133.23 73.9125 134.98 76.9525 134.98 80.4925C134.98 84.0325 133.22 87.0725 130.16 88.8425L77.39 119.323C71.1 122.953 63.9 122.953 57.62 119.323L4.83 88.8425C1.76 87.0725 0.0100021 84.0325 0.0100021 80.4925C0.0100021 76.9525 1.77 73.9125 4.83 72.1425C20.43 63.1325 36.02 54.1325 51.61 45.1325L63.32 24.8525C64.21 23.3225 65.73 22.4425 67.5 22.4425C69.27 22.4425 70.79 23.3225 71.67 24.8525L83.38 45.1325V45.1425ZM83.38 76.9025L71.67 97.1825C70.79 98.7125 69.27 99.5925 67.5 99.5925C65.73 99.5925 64.21 98.7125 63.32 97.1825L51.61 76.9025L38.57 69.3825L48.22 63.8125L57.55 69.2025C58.32 69.6425 58.88 70.1925 59.32 70.9625L67.5 85.1325L75.68 70.9625C76.12 70.1925 76.67 69.6425 77.44 69.2025C93.42 59.9825 109.39 50.7625 125.35 41.5425L72.44 10.9925C69.3 9.1725 65.71 9.1725 62.57 10.9925L9.64 41.5425L28.92 52.6725L19.28 58.2425L4.82 49.9025C1.75 48.1325 0 45.0925 0 41.5525C0 38.0125 1.76 34.9725 4.82 33.2025L57.61 2.7225C63.89 -0.9075 71.09 -0.9075 77.38 2.7225L130.15 33.2025C133.22 34.9725 134.97 38.0125 134.97 41.5525C134.97 45.0925 133.21 48.1325 130.15 49.9025C114.56 58.9125 98.96 67.9125 83.37 76.9125L83.38 76.9025Z" fill="#0C0D0D"/>
</svg>
