<svg width="32" height="32" viewBox="0 0 32 32" fill="none" xmlns="http://www.w3.org/2000/svg">
<rect width="32" height="32" rx="4" fill="black"/>
<mask id="mask0_6869_422" style="mask-type:luminance" maskUnits="userSpaceOnUse" x="4" y="4" width="24" height="24">
<path d="M28 4H4V28H28V4Z" fill="white"/>
</mask>
<g mask="url(#mask0_6869_422)">
<path d="M25.6117 9.19134L17.1428 4.30184C16.4458 3.89939 15.587 3.89939 14.89 4.30184L13.5746 5.06123L13.3384 5.19757C12.6414 5.60002 12.2119 6.34366 12.2119 7.14855V13.3145C12.8703 12.3942 13.8545 11.7229 14.9958 11.4687C14.9842 11.4713 14.9726 11.4739 14.9611 11.4764C14.8897 11.4928 14.8186 11.5055 14.7479 11.515C15.1513 11.4015 15.5767 11.3407 16.0165 11.3407C17.0068 11.3407 17.9248 11.6488 18.6807 12.1741L23.5861 15.0063L26.7382 16.8261V11.1422C26.7382 10.3373 26.3087 9.59379 25.6117 9.19134ZM25.0063 13.4326C24.9988 13.4326 19.5057 10.3501 17.6253 9.29472C16.877 8.87475 15.993 8.75529 15.1651 8.98071C14.8498 9.06657 14.5286 9.20565 14.2322 9.42416V7.00883C14.2322 7.00883 15.7443 5.58137 17.0162 6.3599C17.9994 6.96172 25.0063 11.1266 25.0063 11.1266C25.0063 11.1266 25.0153 13.4326 25.0063 13.4326Z" fill="white"/>
<path d="M5.29373 11.0799L5.26173 20.8589C5.25916 21.6638 5.68605 22.4089 6.38177 22.8136L7.69459 23.5773L7.9303 23.7145C8.62602 24.1192 9.48478 24.1221 10.1831 23.7219L12.0316 22.6626L15.5191 20.6644L15.533 20.6563C14.4072 20.5425 13.3354 20.0225 12.5476 19.1586C12.5556 19.1674 12.5635 19.1761 12.5715 19.1848C12.6212 19.2385 12.6677 19.294 12.711 19.3507C12.4119 19.0571 12.1477 18.7182 11.9291 18.3367C11.4367 17.4776 11.2476 16.5276 11.3276 15.6107L11.346 9.94635L11.3579 6.30664L7.98625 8.23865L6.42631 9.13246C5.72817 9.53281 5.2963 10.2752 5.29373 11.0799ZM9.27463 9.49664C9.27833 9.50323 9.33477 15.8019 9.35406 17.958C9.36178 18.816 9.6975 19.6424 10.3046 20.2487C10.5358 20.4796 10.8163 20.6893 11.1531 20.8377L9.05741 22.0386C9.05741 22.0386 7.0672 21.4363 7.11029 19.9456C7.14357 18.7933 7.27365 10.6432 7.27365 10.6432C7.27365 10.6432 9.27013 9.48876 9.27463 9.49664Z" fill="white"/>
<path d="M17.1751 27.6928L25.6209 22.7635C26.316 22.3578 26.7419 21.6121 26.7382 20.8072L26.7311 19.2884L26.7298 19.0157C26.726 18.2108 26.2931 17.4691 25.5942 17.07L23.744 16.0135L20.2537 14.0202L20.2397 14.0122C20.7122 15.0404 20.8073 16.2278 20.4619 17.345C20.4654 17.3337 20.469 17.3223 20.4724 17.3109C20.4934 17.2408 20.5177 17.1728 20.5447 17.1065C20.4432 17.5132 20.2849 17.9127 20.0668 18.2946C19.5758 19.1545 18.8529 19.7989 18.022 20.1948L13.1299 23.05L9.98633 24.8846L13.3607 26.8117L14.922 27.7035C15.621 28.1025 16.48 28.0985 17.1751 27.6928ZM13.7923 25.064C13.796 25.0574 19.197 21.8161 21.0459 20.7065C21.7816 20.265 22.3238 19.5568 22.5386 18.726C22.6205 18.4095 22.6589 18.0616 22.6163 17.696L24.7137 18.8938C24.7137 18.8938 25.2033 20.9148 23.8966 21.6331C22.8864 22.1885 15.7949 26.2077 15.7949 26.2077C15.7949 26.2077 13.7878 25.0719 13.7923 25.064Z" fill="white"/>
</g>
</svg>
