<svg width="34" height="35" viewBox="0 0 34 35" fill="none" xmlns="http://www.w3.org/2000/svg">
<path d="M31.5213 13.978C32.2816 11.6554 32.0282 9.07939 30.8032 6.96791C28.9446 3.71622 25.1852 2.06926 21.5103 2.82939C19.9052 1.01351 17.5397 0 15.0898 0C11.3304 0 8.03567 2.40709 6.85294 5.95439C4.44524 6.46115 2.37547 7.93919 1.1505 10.0929C-0.708077 13.3446 -0.285674 17.3986 2.2065 20.1858C1.44618 22.5507 1.74186 25.0845 2.96683 27.1959C4.8254 30.4476 8.58479 32.1368 12.2597 31.3345C13.9071 33.1503 16.2303 34.2061 18.6802 34.2061C22.4396 34.2061 25.7344 31.799 26.9171 28.2517C29.3248 27.7449 31.3946 26.2669 32.6195 24.1132C34.4781 20.8615 34.0557 16.7652 31.5213 13.978ZM18.6802 31.9679C17.1596 31.9679 15.7234 31.4611 14.5829 30.4899C14.6252 30.4476 14.7519 30.4054 14.7941 30.3632L21.5948 26.4358C21.9327 26.2247 22.1439 25.8868 22.1439 25.4645V15.8784L25.0163 17.5253C25.0585 17.5253 25.0585 17.5676 25.0585 17.6098V25.549C25.1007 29.0963 22.2284 31.9679 18.6802 31.9679ZM4.90988 26.098C4.14956 24.7889 3.89612 23.2686 4.14956 21.7905C4.1918 21.8328 4.27628 21.875 4.36076 21.9172L11.1614 25.8446C11.4994 26.0557 11.9218 26.0557 12.2597 25.8446L20.581 21.0304V24.3666C20.581 24.4088 20.581 24.451 20.5388 24.451L13.6536 28.4206C10.6123 30.1943 6.68398 29.1385 4.90988 26.098ZM3.13579 11.2331C3.89612 9.92399 5.07884 8.9527 6.47277 8.40372V16.5118C6.47277 16.8919 6.68398 17.272 7.0219 17.4831L15.3432 22.2973L12.4709 23.9443C12.4287 23.9443 12.3864 23.9865 12.3864 23.9443L5.50125 19.9747C2.37547 18.201 1.3617 14.2736 3.13579 11.2331ZM26.7904 16.723L18.469 11.9088L21.3414 10.2618C21.3836 10.2618 21.4258 10.2196 21.4258 10.2618L28.311 14.2314C31.3946 16.0051 32.4083 19.9324 30.6342 22.973C29.8739 24.2821 28.6912 25.2534 27.2972 25.7601V17.6943C27.3395 17.3142 27.1283 16.9341 26.7904 16.723ZM29.6205 12.4155C29.5782 12.3733 29.4937 12.3311 29.4093 12.2889L22.6086 8.36149C22.2706 8.15034 21.8482 8.15034 21.5103 8.36149L13.189 13.1757V9.83953C13.189 9.7973 13.189 9.75507 13.2312 9.75507L20.1164 5.78547C23.1999 4.01182 27.086 5.06757 28.8601 8.15034C29.6205 9.41723 29.8739 10.9375 29.6205 12.4155ZM11.6261 18.3277L8.75375 16.6807C8.71151 16.6807 8.71151 16.6385 8.71151 16.5963V8.65709C8.71151 5.1098 11.5838 2.23818 15.132 2.23818C16.6527 2.23818 18.0889 2.74493 19.2293 3.71622C19.1871 3.75845 19.1026 3.80068 19.0181 3.84291L12.2175 7.77027C11.8795 7.98142 11.6683 8.31926 11.6683 8.74155V18.3277H11.6261ZM13.189 14.9493L16.9061 12.7956L20.6233 14.9493V19.2145L16.9061 21.3682L13.189 19.2145V14.9493Z" fill="black"/>
</svg>
